<svg xmlns="http://www.w3.org/2000/svg" viewBox="0 0 348 120" width="348" height="120"><defs><clipPath id="c_h"><rect x="26" y="14" width="26" height="92" rx="9"></rect><rect x="26" y="14" width="72" height="26" rx="9"></rect><rect x="26" y="56" width="60" height="22" rx="9"></rect></clipPath></defs><g clip-path="url(#c_h)"><rect x="0" y="0" width="120" height="120" fill="#2C6CB0"></rect><rect x="18" y="8" width="90" height="42" fill="#4FA8E0"></rect><polygon points="62,8 108,8 108,50 62,50" fill="#2C6CB0"></polygon><polygon points="62,8 108,50 62,50" fill="#1E4E86"></polygon><rect x="18" y="50" width="74" height="30" fill="#173A6B"></rect><rect x="18" y="80" width="36" height="32" fill="#0F2444"></rect><polyline points="24,67 40,67 45,67 50,56 56,80 61,67 90,67" fill="none" stroke="#FFFFFF" stroke-width="4.5" stroke-linejoin="round" stroke-linecap="round"></polyline></g><circle cx="50" cy="55" r="5" fill="#FF5A3C"></circle><text x="140" y="60" font-family="&#39;Space Grotesk&#39;, sans-serif" font-weight="700" font-size="54" letter-spacing="1" fill="#0F2444" dominant-baseline="central">FUENI</text></svg>